<svg xmlns="http://www.w3.org/2000/svg" xmlns:xlink="http://www.w3.org/1999/xlink" width="250" zoomAndPan="magnify" viewBox="0 0 187.5 149.999998" height="200" preserveAspectRatio="xMidYMid meet" version="1.2"><defs><clipPath id="ef5ed2c2c5"><path d="M 22.675781 2.449219 L 167.78125 2.449219 L 167.78125 147.550781 L 22.675781 147.550781 Z M 22.675781 2.449219 "/></clipPath><clipPath id="f9e9aabf52"><path d="M 95.226562 2.449219 C 55.160156 2.449219 22.675781 34.929688 22.675781 75 C 22.675781 115.070312 55.160156 147.550781 95.226562 147.550781 C 135.296875 147.550781 167.78125 115.070312 167.78125 75 C 167.78125 34.929688 135.296875 2.449219 95.226562 2.449219 Z M 95.226562 2.449219 "/></clipPath><clipPath id="129c4b4544"><path d="M 29 44 L 69 44 L 69 70 L 29 70 Z M 29 44 "/></clipPath><clipPath id="d1971e119e"><path d="M 73.066406 50.167969 L 62.597656 76.59375 L 28.523438 63.097656 L 38.988281 36.671875 Z M 73.066406 50.167969 "/></clipPath><clipPath id="3383f8503d"><path d="M 73.066406 50.167969 L 62.597656 76.59375 L 28.523438 63.097656 L 38.988281 36.671875 Z M 73.066406 50.167969 "/></clipPath><clipPath id="caf2b56684"><path d="M 44 46 L 67 46 L 67 69 L 44 69 Z M 44 46 "/></clipPath><clipPath id="f6a485bdca"><path d="M 73.066406 50.167969 L 62.597656 76.59375 L 28.523438 63.097656 L 38.988281 36.671875 Z M 73.066406 50.167969 "/></clipPath><clipPath id="b07993f857"><path d="M 73.066406 50.167969 L 62.597656 76.59375 L 28.523438 63.097656 L 38.988281 36.671875 Z M 73.066406 50.167969 "/></clipPath></defs><g id="1504580f99"><g clip-rule="nonzero" clip-path="url(#ef5ed2c2c5)"><g clip-rule="nonzero" clip-path="url(#f9e9aabf52)"><path style=" stroke:none;fill-rule:nonzero;fill:#b4b4b4;fill-opacity:1;" d="M 22.675781 2.449219 L 167.78125 2.449219 L 167.78125 147.550781 L 22.675781 147.550781 Z M 22.675781 2.449219 "/></g></g><g style="fill:#663a1f;fill-opacity:1;"><g transform="translate(34.837053, 103.811123)"><path style="stroke:none" d="M 37.84375 -54.265625 C 37.90625 -54.066406 37.9375 -51.625 37.9375 -46.9375 L 37.9375 -40.390625 C 37.8125 -37.128906 36.785156 -34.207031 34.859375 -31.625 C 32.929688 -29.050781 30.4375 -27.179688 27.375 -26.015625 C 26.46875 -25.679688 25.097656 -25.453125 23.265625 -25.328125 C 22.160156 -25.328125 21.25 -25.3125 20.53125 -25.28125 C 19.8125 -25.25 19.320312 -25.195312 19.0625 -25.125 C 17.4375 -24.9375 16.554688 -24.300781 16.421875 -23.21875 C 16.296875 -22.144531 16.234375 -20.828125 16.234375 -19.265625 L 16.234375 -3.90625 C 16.234375 -2.144531 16.003906 -1.039062 15.546875 -0.59375 C 15.285156 -0.332031 14.648438 -0.132812 13.640625 0 C 12.628906 0.132812 11.503906 0.179688 10.265625 0.140625 C 9.023438 0.109375 7.882812 0.0625 6.84375 0 C 5.664062 -0.132812 5.007812 -0.65625 4.875 -1.5625 C 4.75 -2.476562 4.6875 -3.519531 4.6875 -4.6875 L 4.6875 -63.75 C 4.6875 -65.382812 4.769531 -66.523438 4.9375 -67.171875 C 5.101562 -67.828125 5.523438 -68.234375 6.203125 -68.390625 C 6.890625 -68.554688 8.050781 -68.640625 9.6875 -68.640625 L 20.921875 -68.640625 C 22.421875 -68.640625 24.082031 -68.441406 25.90625 -68.046875 C 27.738281 -67.660156 29.515625 -66.945312 31.234375 -65.90625 C 32.960938 -64.863281 34.429688 -63.394531 35.640625 -61.5 C 36.847656 -59.613281 37.582031 -57.203125 37.84375 -54.265625 Z M 26.890625 -42.140625 C 27.210938 -44.359375 27.304688 -46.554688 27.171875 -48.734375 C 27.046875 -50.921875 26.476562 -52.78125 25.46875 -54.3125 C 24.457031 -55.84375 22.75 -56.707031 20.34375 -56.90625 C 18.644531 -57.039062 17.519531 -56.828125 16.96875 -56.265625 C 16.414062 -55.710938 16.15625 -54.703125 16.1875 -53.234375 C 16.21875 -51.773438 16.234375 -49.675781 16.234375 -46.9375 L 16.328125 -46.9375 L 16.328125 -39.203125 C 16.460938 -37.578125 17.375 -36.632812 19.0625 -36.375 C 20.957031 -36.113281 22.671875 -36.519531 24.203125 -37.59375 C 25.734375 -38.664062 26.628906 -40.179688 26.890625 -42.140625 Z M 26.890625 -42.140625 "/></g></g><g style="fill:#663a1f;fill-opacity:1;"><g transform="translate(76.683025, 103.811123)"><path style="stroke:none" d="M 34.328125 -9.484375 C 34.453125 -8.242188 34.5 -7.003906 34.46875 -5.765625 C 34.4375 -4.523438 34.351562 -3.320312 34.21875 -2.15625 C 34.15625 -0.976562 33.632812 -0.320312 32.65625 -0.1875 C 31.675781 -0.0625 30.664062 0 29.625 0 L 8.40625 0 C 7.757812 0 7.0625 -0.03125 6.3125 -0.09375 C 5.5625 -0.164062 4.957031 -0.394531 4.5 -0.78125 C 4.039062 -1.175781 3.796875 -1.765625 3.765625 -2.546875 C 3.734375 -3.328125 3.71875 -4.628906 3.71875 -6.453125 L 3.71875 -63.359375 C 3.71875 -64.992188 3.796875 -66.164062 3.953125 -66.875 C 4.117188 -67.59375 4.546875 -68.035156 5.234375 -68.203125 C 5.921875 -68.367188 7.046875 -68.453125 8.609375 -68.453125 L 29.71875 -68.453125 C 31.8125 -68.453125 33.148438 -68.222656 33.734375 -67.765625 C 34.054688 -67.503906 34.265625 -66.867188 34.359375 -65.859375 C 34.460938 -64.847656 34.5 -63.769531 34.46875 -62.625 C 34.4375 -61.488281 34.390625 -60.53125 34.328125 -59.75 C 34.253906 -58.570312 33.742188 -57.914062 32.796875 -57.78125 C 31.859375 -57.65625 30.671875 -57.59375 29.234375 -57.59375 L 19.5625 -57.59375 C 17.925781 -57.53125 16.832031 -57.203125 16.28125 -56.609375 C 15.726562 -56.023438 15.382812 -54.984375 15.25 -53.484375 C 15.1875 -51.859375 15.171875 -50.226562 15.203125 -48.59375 C 15.234375 -46.96875 15.285156 -45.375 15.359375 -43.8125 C 15.359375 -42.632812 15.648438 -41.6875 16.234375 -40.96875 C 16.816406 -40.445312 17.644531 -40.15625 18.71875 -40.09375 C 19.800781 -40.03125 21.09375 -40 22.59375 -40 C 23.375 -40 24.054688 -40 24.640625 -40 C 25.222656 -40 25.679688 -39.960938 26.015625 -39.890625 C 27.179688 -39.890625 27.957031 -39.675781 28.34375 -39.25 C 28.738281 -38.832031 28.972656 -38.035156 29.046875 -36.859375 C 29.109375 -35.816406 29.140625 -34.789062 29.140625 -33.78125 C 29.140625 -32.769531 29.070312 -31.742188 28.9375 -30.703125 C 28.9375 -29.398438 28.222656 -28.679688 26.796875 -28.546875 C 26.078125 -28.484375 25.160156 -28.453125 24.046875 -28.453125 C 22.941406 -28.453125 21.671875 -28.453125 20.234375 -28.453125 C 18.410156 -28.453125 17.171875 -28.191406 16.515625 -27.671875 C 15.867188 -27.148438 15.484375 -25.847656 15.359375 -23.765625 C 15.285156 -22.585938 15.234375 -21.328125 15.203125 -19.984375 C 15.171875 -18.648438 15.1875 -17.238281 15.25 -15.75 C 15.382812 -14.175781 15.726562 -13.097656 16.28125 -12.515625 C 16.832031 -11.929688 17.925781 -11.601562 19.5625 -11.53125 L 29.140625 -11.53125 C 30.640625 -11.46875 31.84375 -11.382812 32.75 -11.28125 C 33.664062 -11.1875 34.191406 -10.585938 34.328125 -9.484375 Z M 34.328125 -9.484375 "/></g></g><g style="fill:#663a1f;fill-opacity:1;"><g transform="translate(115.400335, 103.811123)"><path style="stroke:none" d="M 36.671875 -63.84375 C 36.671875 -62.875 36.671875 -62.03125 36.671875 -61.3125 C 36.671875 -60.59375 36.632812 -60.035156 36.5625 -59.640625 C 36.5625 -58.859375 36.398438 -58.238281 36.078125 -57.78125 C 35.691406 -57.457031 35.171875 -57.265625 34.515625 -57.203125 C 33.859375 -57.140625 33.078125 -57.109375 32.171875 -57.109375 C 31.191406 -57.109375 30.226562 -57.070312 29.28125 -57 C 28.34375 -56.9375 27.578125 -56.613281 26.984375 -56.03125 C 26.398438 -55.507812 26.070312 -54.757812 26 -53.78125 C 25.9375 -52.800781 25.90625 -51.367188 25.90625 -49.484375 L 25.90625 -5.96875 C 25.90625 -4.207031 25.859375 -2.804688 25.765625 -1.765625 C 25.671875 -0.722656 25.035156 -0.132812 23.859375 0 C 21.316406 0.0625 18.875 0.0625 16.53125 0 C 15.289062 -0.0625 14.617188 -0.613281 14.515625 -1.65625 C 14.421875 -2.707031 14.375 -3.945312 14.375 -5.375 L 14.375 -50.453125 C 14.375 -52.148438 14.335938 -53.390625 14.265625 -54.171875 C 14.203125 -54.953125 13.945312 -55.570312 13.5 -56.03125 C 13.039062 -56.550781 12.351562 -56.859375 11.4375 -56.953125 C 10.53125 -57.054688 9.585938 -57.109375 8.609375 -57.109375 C 8.085938 -57.109375 7.628906 -57.109375 7.234375 -57.109375 C 6.847656 -57.109375 6.554688 -57.140625 6.359375 -57.203125 C 5.378906 -57.265625 4.691406 -57.457031 4.296875 -57.78125 C 3.910156 -58.113281 3.6875 -58.769531 3.625 -59.75 C 3.488281 -61.832031 3.488281 -64.015625 3.625 -66.296875 C 3.625 -67.015625 3.816406 -67.566406 4.203125 -67.953125 C 4.597656 -68.285156 5.117188 -68.453125 5.765625 -68.453125 C 6.421875 -68.453125 7.300781 -68.453125 8.40625 -68.453125 L 31.875 -68.453125 C 33.4375 -68.453125 34.539062 -68.382812 35.1875 -68.25 C 35.84375 -68.125 36.253906 -67.75 36.421875 -67.125 C 36.585938 -66.507812 36.671875 -65.414062 36.671875 -63.84375 Z M 36.671875 -63.84375 "/></g></g><g clip-rule="nonzero" clip-path="url(#129c4b4544)"><g clip-rule="nonzero" clip-path="url(#d1971e119e)"><g clip-rule="nonzero" clip-path="url(#3383f8503d)"><path style=" stroke:none;fill-rule:nonzero;fill:#fef9ea;fill-opacity:1;" d="M 48.480469 46.355469 C 49.277344 46.523438 50.195312 46.738281 51.011719 46.761719 C 51.835938 46.78125 52.714844 45.808594 53.433594 45.414062 C 54.609375 44.777344 55.929688 44.351562 57.261719 44.394531 C 58.59375 44.4375 59.949219 44.972656 60.804688 46 C 61.371094 46.660156 61.695312 47.492188 62.289062 48.121094 C 63.261719 49.164062 64.800781 49.523438 65.769531 50.570312 C 67.105469 52.019531 66.953125 54.257812 67.578125 56.125 C 67.800781 56.789062 68.121094 57.417969 68.324219 58.101562 C 68.902344 60.082031 68.21875 62.371094 66.644531 63.703125 C 65.96875 64.277344 65.164062 64.675781 64.511719 65.289062 C 63.714844 66.03125 63.21875 67.039062 62.5 67.855469 C 60.617188 70.019531 57.171875 70.621094 54.660156 69.226562 C 54.132812 68.929688 53.636719 68.558594 53.078125 68.320312 C 51.671875 67.738281 50.078125 68.121094 48.558594 68.003906 C 45.9375 67.8125 43.65625 66.167969 41.128906 65.4375 C 39.207031 64.878906 37.1875 64.726562 35.199219 64.539062 C 31.234375 64.171875 29.269531 62.691406 29.164062 62.542969 L 34.464844 49.164062 C 34.714844 48.976562 34.992188 48.824219 35.304688 48.738281 C 36.398438 48.433594 37.667969 48.921875 38.769531 49.003906 C 40.191406 49.109375 41.546875 49.507812 42.835938 48.847656 C 43.824219 48.335938 44.367188 47.972656 45.296875 47.34375 C 46.238281 46.738281 47.390625 46.125 48.480469 46.355469 Z M 48.480469 46.355469 "/></g></g></g><g clip-rule="nonzero" clip-path="url(#caf2b56684)"><g clip-rule="nonzero" clip-path="url(#f6a485bdca)"><g clip-rule="nonzero" clip-path="url(#b07993f857)"><path style=" stroke:none;fill-rule:nonzero;fill:#ab8262;fill-opacity:1;" d="M 57.972656 61.394531 C 57.414062 61.925781 56.746094 62.308594 56.078125 62.691406 C 54.273438 63.726562 52.460938 64.75 50.65625 65.789062 C 50.109375 66.09375 49.542969 66.417969 48.917969 66.457031 C 47.992188 66.515625 45.445312 65.992188 44.839844 63.847656 C 44.636719 63.148438 44.617188 62.417969 44.699219 61.683594 C 44.882812 60.148438 45.097656 58.597656 44.925781 57.0625 C 44.75 55.496094 44.171875 53.996094 44.109375 52.425781 C 44.042969 50.859375 44.683594 49.085938 46.152344 48.53125 C 47.285156 48.101562 48.585938 48.539062 49.601562 49.203125 C 50.621094 49.871094 51.46875 50.769531 52.5 51.410156 C 53.796875 52.230469 55.316406 52.617188 56.703125 53.257812 C 60.042969 54.804688 60.828125 58.695312 57.972656 61.394531 Z M 66.242188 59.050781 C 65.742188 58.421875 65.035156 57.953125 64.242188 57.808594 C 63.449219 57.667969 62.59375 57.867188 61.996094 58.402344 C 61.40625 58.9375 61.105469 59.8125 61.316406 60.585938 C 61.496094 61.234375 62.011719 61.769531 62.613281 62.054688 C 63.214844 62.347656 63.917969 62.425781 64.589844 62.382812 C 65.0625 62.34375 65.546875 62.25 65.9375 62 C 66.984375 61.324219 66.953125 59.941406 66.242188 59.050781 Z M 60.484375 64.335938 C 60.074219 64.027344 59.640625 63.738281 59.164062 63.585938 C 58.683594 63.4375 58.128906 63.433594 57.648438 63.691406 C 57.113281 63.972656 56.734375 64.523438 56.457031 65.101562 C 56.273438 65.484375 56.121094 65.910156 56.109375 66.328125 C 56.082031 67.097656 56.546875 67.773438 57.15625 68.105469 C 58.046875 68.597656 59.910156 68.589844 60.800781 67.785156 C 61.9375 66.746094 61.417969 65.019531 60.484375 64.335938 Z M 65.703125 52.542969 C 65.621094 52.148438 65.390625 51.816406 65.132812 51.546875 C 64.519531 50.902344 63.699219 50.492188 62.824219 50.386719 C 62.242188 50.316406 61.566406 50.410156 61.109375 50.902344 C 60.671875 51.359375 60.53125 52.089844 60.613281 52.71875 C 60.738281 53.628906 61.296875 54.382812 62.027344 54.734375 C 62.761719 55.085938 63.660156 55.050781 64.472656 54.699219 C 65.222656 54.363281 65.886719 53.441406 65.703125 52.542969 Z M 58.488281 47.941406 C 58.261719 47.421875 57.71875 47.097656 57.1875 46.878906 C 56.585938 46.625 55.929688 46.449219 55.28125 46.496094 C 54.632812 46.539062 53.96875 46.832031 53.59375 47.367188 C 53.179688 47.960938 53.160156 48.777344 53.480469 49.421875 C 53.804688 50.066406 54.4375 50.515625 55.125 50.722656 C 55.820312 50.914062 56.566406 50.859375 57.257812 50.640625 C 57.566406 50.539062 57.875 50.40625 58.109375 50.183594 C 58.566406 49.730469 58.730469 48.515625 58.488281 47.941406 Z M 58.488281 47.941406 "/></g></g></g><g style="fill:#663a1f;fill-opacity:1;"><g transform="translate(49.98946, 124.521383)"><path style="stroke:none" d="M 5.578125 -12.015625 C 5.859375 -12.015625 6.054688 -12.003906 6.171875 -11.984375 C 6.285156 -11.960938 6.351562 -11.894531 6.375 -11.78125 C 6.40625 -11.675781 6.421875 -11.488281 6.421875 -11.21875 C 6.421875 -11.039062 6.421875 -10.890625 6.421875 -10.765625 C 6.421875 -10.640625 6.414062 -10.539062 6.40625 -10.46875 C 6.40625 -10.332031 6.375 -10.226562 6.3125 -10.15625 C 6.25 -10.09375 6.160156 -10.054688 6.046875 -10.046875 C 5.929688 -10.035156 5.789062 -10.03125 5.625 -10.03125 C 5.457031 -10.03125 5.289062 -10.023438 5.125 -10.015625 C 4.957031 -10.003906 4.820312 -9.945312 4.71875 -9.84375 C 4.613281 -9.75 4.554688 -9.613281 4.546875 -9.4375 C 4.535156 -9.269531 4.53125 -9.019531 4.53125 -8.6875 L 4.53125 -6.65625 L 5.28125 -6.234375 C 5.375 -6.160156 5.421875 -6.082031 5.421875 -6 C 5.421875 -5.882812 5.375 -5.796875 5.28125 -5.734375 L 4.53125 -5.3125 L 4.53125 -1.046875 C 4.53125 -0.734375 4.519531 -0.484375 4.5 -0.296875 C 4.488281 -0.117188 4.378906 -0.0195312 4.171875 0 C 3.722656 0.0078125 3.296875 0.0078125 2.890625 0 C 2.671875 -0.0078125 2.550781 -0.101562 2.53125 -0.28125 C 2.507812 -0.46875 2.5 -0.6875 2.5 -0.9375 L 2.5 -5.28125 L 1.71875 -5.734375 C 1.632812 -5.773438 1.59375 -5.863281 1.59375 -6 C 1.59375 -6.082031 1.632812 -6.160156 1.71875 -6.234375 L 2.5 -6.6875 L 2.5 -8.859375 C 2.5 -9.160156 2.492188 -9.378906 2.484375 -9.515625 C 2.472656 -9.648438 2.429688 -9.757812 2.359375 -9.84375 C 2.273438 -9.9375 2.148438 -9.988281 1.984375 -10 C 1.828125 -10.019531 1.664062 -10.03125 1.5 -10.03125 C 1.40625 -10.03125 1.320312 -10.03125 1.25 -10.03125 C 1.1875 -10.03125 1.132812 -10.035156 1.09375 -10.046875 C 0.925781 -10.054688 0.804688 -10.085938 0.734375 -10.140625 C 0.671875 -10.203125 0.632812 -10.316406 0.625 -10.484375 C 0.59375 -10.859375 0.59375 -11.242188 0.625 -11.640625 C 0.625 -11.765625 0.65625 -11.863281 0.71875 -11.9375 C 0.789062 -11.988281 0.882812 -12.015625 1 -12.015625 C 1.113281 -12.015625 1.265625 -12.015625 1.453125 -12.015625 Z M 5.578125 -12.015625 "/></g></g><g style="fill:#663a1f;fill-opacity:1;"><g transform="translate(63.025395, 124.521383)"><path style="stroke:none" d="M 6.734375 -0.9375 C 6.765625 -0.820312 6.785156 -0.71875 6.796875 -0.625 C 6.816406 -0.53125 6.835938 -0.441406 6.859375 -0.359375 C 6.878906 -0.273438 6.863281 -0.195312 6.8125 -0.125 C 6.757812 -0.0625 6.6875 -0.0234375 6.59375 -0.015625 C 6.363281 0.00390625 6.117188 0.015625 5.859375 0.015625 C 5.609375 0.015625 5.335938 0.0078125 5.046875 0 C 4.867188 -0.0195312 4.75 -0.117188 4.6875 -0.296875 C 4.632812 -0.472656 4.578125 -0.679688 4.515625 -0.921875 C 4.492188 -1.046875 4.453125 -1.222656 4.390625 -1.453125 C 4.335938 -1.691406 4.265625 -1.976562 4.171875 -2.3125 L 3.84375 -3.703125 C 3.8125 -3.867188 3.757812 -4.035156 3.6875 -4.203125 C 3.613281 -4.378906 3.445312 -4.445312 3.1875 -4.40625 C 2.9375 -4.375 2.796875 -4.253906 2.765625 -4.046875 C 2.742188 -3.847656 2.726562 -3.613281 2.71875 -3.34375 L 2.71875 -0.921875 C 2.71875 -0.671875 2.707031 -0.457031 2.6875 -0.28125 C 2.664062 -0.101562 2.535156 -0.0078125 2.296875 0 C 1.898438 0.0195312 1.492188 0.0195312 1.078125 0 C 0.847656 -0.0078125 0.722656 -0.101562 0.703125 -0.28125 C 0.691406 -0.46875 0.6875 -0.707031 0.6875 -1 L 0.6875 -11.140625 C 0.6875 -11.578125 0.726562 -11.835938 0.8125 -11.921875 C 0.882812 -11.992188 1.050781 -12.03125 1.3125 -12.03125 C 1.582031 -12.03125 1.960938 -12.03125 2.453125 -12.03125 L 3.359375 -12.03125 C 3.796875 -12.0625 4.289062 -11.992188 4.84375 -11.828125 C 5.3125 -11.710938 5.695312 -11.472656 6 -11.109375 C 6.3125 -10.742188 6.472656 -10.320312 6.484375 -9.84375 C 6.503906 -9.382812 6.503906 -8.363281 6.484375 -6.78125 C 6.484375 -6.394531 6.320312 -5.988281 6 -5.5625 C 5.769531 -5.28125 5.703125 -4.921875 5.796875 -4.484375 C 5.878906 -4.203125 6 -3.769531 6.15625 -3.1875 C 6.3125 -2.601562 6.503906 -1.851562 6.734375 -0.9375 Z M 4.578125 -9 C 4.566406 -9.269531 4.5 -9.472656 4.375 -9.609375 C 4.25 -9.753906 4.046875 -9.859375 3.765625 -9.921875 C 3.703125 -9.929688 3.648438 -9.9375 3.609375 -9.9375 C 3.566406 -9.945312 3.53125 -9.960938 3.5 -9.984375 C 3.175781 -10.023438 2.960938 -9.992188 2.859375 -9.890625 C 2.765625 -9.785156 2.71875 -9.597656 2.71875 -9.328125 C 2.726562 -9.054688 2.734375 -8.679688 2.734375 -8.203125 C 2.734375 -7.828125 2.734375 -7.523438 2.734375 -7.296875 C 2.742188 -7.078125 2.75 -6.957031 2.75 -6.9375 C 2.75 -6.65625 2.890625 -6.472656 3.171875 -6.390625 C 3.492188 -6.304688 3.785156 -6.347656 4.046875 -6.515625 C 4.316406 -6.679688 4.484375 -6.925781 4.546875 -7.25 C 4.554688 -7.300781 4.5625 -7.34375 4.5625 -7.375 C 4.570312 -7.414062 4.578125 -7.441406 4.578125 -7.453125 Z M 4.578125 -9 "/></g></g><g style="fill:#663a1f;fill-opacity:1;"><g transform="translate(76.215873, 124.521383)"><path style="stroke:none" d="M 7.234375 -1.03125 C 7.316406 -0.53125 7.289062 -0.222656 7.15625 -0.109375 C 7.113281 -0.0546875 6.976562 -0.0195312 6.75 0 C 6.519531 0.0078125 6.289062 0.0078125 6.0625 0 C 5.832031 0 5.695312 0 5.65625 0 C 5.488281 -0.0078125 5.375 -0.0507812 5.3125 -0.125 C 5.226562 -0.1875 5.175781 -0.289062 5.15625 -0.4375 C 5.132812 -0.582031 5.101562 -0.789062 5.0625 -1.0625 C 5.050781 -1.1875 5.039062 -1.300781 5.03125 -1.40625 C 5.019531 -1.507812 5.003906 -1.597656 4.984375 -1.671875 C 4.984375 -1.722656 4.96875 -1.828125 4.9375 -1.984375 C 4.90625 -2.148438 4.847656 -2.304688 4.765625 -2.453125 C 4.679688 -2.597656 4.535156 -2.671875 4.328125 -2.671875 C 4.285156 -2.691406 4.25 -2.703125 4.21875 -2.703125 C 4.195312 -2.703125 4.1875 -2.703125 4.1875 -2.703125 C 3.894531 -2.703125 3.671875 -2.6875 3.515625 -2.65625 C 3.367188 -2.625 3.265625 -2.546875 3.203125 -2.421875 C 3.140625 -2.296875 3.09375 -2.082031 3.0625 -1.78125 C 3.050781 -1.71875 3.023438 -1.570312 2.984375 -1.34375 C 2.941406 -1.113281 2.882812 -0.796875 2.8125 -0.390625 C 2.769531 -0.140625 2.628906 -0.015625 2.390625 -0.015625 C 1.859375 -0.00390625 1.410156 -0.00390625 1.046875 -0.015625 C 0.804688 -0.0234375 0.6875 -0.109375 0.6875 -0.265625 C 0.695312 -0.429688 0.71875 -0.640625 0.75 -0.890625 C 0.820312 -1.285156 0.910156 -1.789062 1.015625 -2.40625 C 1.128906 -3.019531 1.25 -3.691406 1.375 -4.421875 C 1.5 -5.160156 1.625 -5.898438 1.75 -6.640625 C 1.875 -7.390625 1.988281 -8.085938 2.09375 -8.734375 C 2.207031 -9.390625 2.300781 -9.945312 2.375 -10.40625 C 2.457031 -10.875 2.515625 -11.1875 2.546875 -11.34375 C 2.597656 -11.632812 2.671875 -11.816406 2.765625 -11.890625 C 2.867188 -11.972656 3.054688 -12.015625 3.328125 -12.015625 L 4.890625 -12.015625 C 5.078125 -11.992188 5.203125 -11.960938 5.265625 -11.921875 C 5.328125 -11.859375 5.378906 -11.757812 5.421875 -11.625 C 5.460938 -11.488281 5.492188 -11.351562 5.515625 -11.21875 C 5.585938 -10.75 5.679688 -10.175781 5.796875 -9.5 C 5.910156 -8.820312 6.03125 -8.101562 6.15625 -7.34375 C 6.289062 -6.582031 6.421875 -5.832031 6.546875 -5.09375 C 6.671875 -4.363281 6.785156 -3.695312 6.890625 -3.09375 C 6.992188 -2.488281 7.078125 -2 7.140625 -1.625 C 7.203125 -1.25 7.234375 -1.050781 7.234375 -1.03125 Z M 4.53125 -4.8125 C 4.53125 -4.832031 4.53125 -4.863281 4.53125 -4.90625 C 4.53125 -4.957031 4.523438 -5.019531 4.515625 -5.09375 C 4.503906 -5.195312 4.476562 -5.347656 4.4375 -5.546875 C 4.40625 -5.742188 4.375 -5.925781 4.34375 -6.09375 C 4.3125 -6.269531 4.296875 -6.363281 4.296875 -6.375 C 4.285156 -6.4375 4.25 -6.519531 4.1875 -6.625 C 4.144531 -6.71875 4.082031 -6.753906 4 -6.734375 C 3.914062 -6.722656 3.859375 -6.6875 3.828125 -6.625 C 3.773438 -6.46875 3.722656 -6.253906 3.671875 -5.984375 C 3.617188 -5.722656 3.578125 -5.410156 3.546875 -5.046875 C 3.535156 -5.003906 3.53125 -4.960938 3.53125 -4.921875 C 3.53125 -4.878906 3.53125 -4.847656 3.53125 -4.828125 C 3.53125 -4.742188 3.609375 -4.6875 3.765625 -4.65625 C 3.929688 -4.632812 4.097656 -4.632812 4.265625 -4.65625 C 4.429688 -4.6875 4.519531 -4.738281 4.53125 -4.8125 Z M 4.53125 -4.8125 "/></g></g><g style="fill:#663a1f;fill-opacity:1;"><g transform="translate(90.213396, 124.521383)"><path style="stroke:none" d="M 6.640625 -4.125 C 6.671875 -3.644531 6.679688 -3.242188 6.671875 -2.921875 C 6.660156 -2.597656 6.640625 -2.351562 6.609375 -2.1875 C 6.492188 -1.582031 6.234375 -1.078125 5.828125 -0.671875 C 5.421875 -0.273438 4.945312 -0.015625 4.40625 0.109375 C 3.863281 0.234375 3.304688 0.191406 2.734375 -0.015625 C 2.171875 -0.222656 1.664062 -0.625 1.21875 -1.21875 C 1.09375 -1.375 1 -1.5625 0.9375 -1.78125 C 0.882812 -2.007812 0.859375 -2.269531 0.859375 -2.5625 L 0.84375 -9.359375 C 0.832031 -9.890625 0.988281 -10.398438 1.3125 -10.890625 C 1.632812 -11.390625 2.078125 -11.742188 2.640625 -11.953125 C 2.847656 -12.035156 3.046875 -12.078125 3.234375 -12.078125 C 3.484375 -12.085938 3.695312 -12.085938 3.875 -12.078125 C 4.050781 -12.078125 4.195312 -12.078125 4.3125 -12.078125 C 4.394531 -12.054688 4.472656 -12.039062 4.546875 -12.03125 C 4.628906 -12.019531 4.707031 -12.003906 4.78125 -11.984375 C 4.976562 -11.898438 5.203125 -11.757812 5.453125 -11.5625 C 5.703125 -11.363281 5.96875 -11.097656 6.25 -10.765625 C 6.425781 -10.554688 6.539062 -10.289062 6.59375 -9.96875 C 6.65625 -9.65625 6.6875 -9.335938 6.6875 -9.015625 C 6.6875 -8.703125 6.675781 -8.460938 6.65625 -8.296875 C 6.644531 -8.085938 6.601562 -7.945312 6.53125 -7.875 C 6.457031 -7.8125 6.316406 -7.78125 6.109375 -7.78125 C 5.753906 -7.769531 5.398438 -7.769531 5.046875 -7.78125 C 4.890625 -7.789062 4.785156 -7.816406 4.734375 -7.859375 C 4.679688 -7.910156 4.65625 -8.019531 4.65625 -8.1875 C 4.65625 -8.351562 4.648438 -8.613281 4.640625 -8.96875 C 4.628906 -9.300781 4.523438 -9.566406 4.328125 -9.765625 C 4.140625 -9.960938 3.925781 -10.0625 3.6875 -10.0625 C 3.445312 -10.0625 3.242188 -9.960938 3.078125 -9.765625 C 2.898438 -9.585938 2.800781 -9.394531 2.78125 -9.1875 C 2.769531 -8.988281 2.765625 -8.78125 2.765625 -8.5625 C 2.753906 -6.582031 2.753906 -4.925781 2.765625 -3.59375 C 2.765625 -3.476562 2.765625 -3.363281 2.765625 -3.25 C 2.773438 -3.132812 2.785156 -3.023438 2.796875 -2.921875 C 2.816406 -2.703125 2.894531 -2.492188 3.03125 -2.296875 C 3.175781 -2.109375 3.378906 -2 3.640625 -1.96875 C 3.898438 -1.957031 4.128906 -2.054688 4.328125 -2.265625 C 4.523438 -2.484375 4.628906 -2.753906 4.640625 -3.078125 L 4.640625 -4.015625 C 4.660156 -4.210938 4.695312 -4.34375 4.75 -4.40625 C 4.8125 -4.476562 4.9375 -4.515625 5.125 -4.515625 C 5.488281 -4.535156 5.867188 -4.535156 6.265625 -4.515625 C 6.515625 -4.492188 6.640625 -4.363281 6.640625 -4.125 Z M 6.640625 -4.125 "/></g></g><g style="fill:#663a1f;fill-opacity:1;"><g transform="translate(103.678608, 124.521383)"><path style="stroke:none" d="M 7.1875 -0.34375 C 7.238281 -0.1875 7.175781 -0.0820312 7 -0.03125 C 6.863281 -0.0195312 6.75 -0.0078125 6.65625 0 C 6.570312 0 6.394531 0 6.125 0 L 5.65625 0 C 5.1875 0.03125 4.863281 -0.1875 4.6875 -0.65625 C 4.664062 -0.726562 4.539062 -1.066406 4.3125 -1.671875 C 4.101562 -2.191406 3.9375 -2.601562 3.8125 -2.90625 C 3.695312 -3.207031 3.625 -3.398438 3.59375 -3.484375 C 3.539062 -3.609375 3.488281 -3.71875 3.4375 -3.8125 C 3.382812 -3.90625 3.335938 -3.972656 3.296875 -4.015625 C 3.253906 -4.078125 3.191406 -4.109375 3.109375 -4.109375 C 3.035156 -4.109375 2.976562 -4.078125 2.9375 -4.015625 C 2.800781 -3.847656 2.734375 -3.613281 2.734375 -3.3125 C 2.734375 -3.332031 2.734375 -3.195312 2.734375 -2.90625 C 2.734375 -2.625 2.726562 -2.195312 2.71875 -1.625 L 2.71875 -0.484375 C 2.707031 -0.304688 2.664062 -0.1875 2.59375 -0.125 C 2.519531 -0.0625 2.40625 -0.0195312 2.25 0 C 2.09375 0 1.925781 0 1.75 0 C 1.582031 0 1.414062 -0.00390625 1.25 -0.015625 C 0.988281 -0.015625 0.851562 -0.160156 0.84375 -0.453125 C 0.832031 -0.503906 0.828125 -0.582031 0.828125 -0.6875 C 0.828125 -0.789062 0.828125 -0.914062 0.828125 -1.0625 L 0.828125 -11.0625 C 0.828125 -11.320312 0.835938 -11.539062 0.859375 -11.71875 C 0.878906 -11.894531 0.992188 -11.988281 1.203125 -12 C 1.578125 -12.007812 1.960938 -12.007812 2.359375 -12 C 2.546875 -11.988281 2.648438 -11.898438 2.671875 -11.734375 C 2.703125 -11.578125 2.71875 -11.398438 2.71875 -11.203125 L 2.71875 -10.515625 C 2.71875 -10.242188 2.71875 -10.019531 2.71875 -9.84375 C 2.726562 -9.664062 2.753906 -9.488281 2.796875 -9.3125 C 2.816406 -9.226562 2.867188 -9.175781 2.953125 -9.15625 C 3.035156 -9.144531 3.109375 -9.160156 3.171875 -9.203125 C 3.273438 -9.285156 3.382812 -9.453125 3.5 -9.703125 C 3.5625 -9.796875 3.625 -9.910156 3.6875 -10.046875 C 3.757812 -10.179688 3.835938 -10.335938 3.921875 -10.515625 C 4.015625 -10.703125 4.09375 -10.863281 4.15625 -11 C 4.226562 -11.144531 4.285156 -11.253906 4.328125 -11.328125 C 4.429688 -11.515625 4.519531 -11.671875 4.59375 -11.796875 C 4.664062 -11.921875 4.773438 -11.988281 4.921875 -12 C 5.566406 -12.0625 6.128906 -12.0625 6.609375 -12 C 6.671875 -11.988281 6.710938 -11.957031 6.734375 -11.90625 C 6.765625 -11.851562 6.769531 -11.800781 6.75 -11.75 C 6.726562 -11.675781 6.695312 -11.597656 6.65625 -11.515625 C 6.613281 -11.441406 6.570312 -11.359375 6.53125 -11.265625 C 6.414062 -11.035156 6.21875 -10.640625 5.9375 -10.078125 C 5.65625 -9.523438 5.296875 -8.8125 4.859375 -7.9375 C 4.773438 -7.769531 4.710938 -7.648438 4.671875 -7.578125 C 4.640625 -7.515625 4.628906 -7.492188 4.640625 -7.515625 C 4.503906 -7.253906 4.5 -6.992188 4.625 -6.734375 C 4.675781 -6.597656 4.742188 -6.441406 4.828125 -6.265625 C 4.910156 -6.097656 4.988281 -5.90625 5.0625 -5.6875 C 5.375 -4.914062 5.691406 -4.125 6.015625 -3.3125 C 6.347656 -2.5 6.691406 -1.664062 7.046875 -0.8125 C 7.109375 -0.65625 7.15625 -0.5 7.1875 -0.34375 Z M 7.1875 -0.34375 "/></g></g><g style="fill:#663a1f;fill-opacity:1;"><g transform="translate(117.487247, 124.521383)"><path style="stroke:none" d="M 6.03125 -1.671875 C 6.050781 -1.453125 6.054688 -1.234375 6.046875 -1.015625 C 6.046875 -0.796875 6.035156 -0.582031 6.015625 -0.375 C 6.003906 -0.164062 5.910156 -0.0507812 5.734375 -0.03125 C 5.566406 -0.0078125 5.390625 0 5.203125 0 L 1.484375 0 C 1.367188 0 1.242188 -0.00390625 1.109375 -0.015625 C 0.972656 -0.0234375 0.867188 -0.0664062 0.796875 -0.140625 C 0.710938 -0.203125 0.664062 -0.300781 0.65625 -0.4375 C 0.65625 -0.582031 0.65625 -0.816406 0.65625 -1.140625 L 0.65625 -11.125 C 0.65625 -11.414062 0.664062 -11.625 0.6875 -11.75 C 0.71875 -11.875 0.789062 -11.945312 0.90625 -11.96875 C 1.03125 -12 1.234375 -12.015625 1.515625 -12.015625 L 5.21875 -12.015625 C 5.582031 -12.015625 5.816406 -11.976562 5.921875 -11.90625 C 5.984375 -11.851562 6.019531 -11.738281 6.03125 -11.5625 C 6.050781 -11.382812 6.054688 -11.195312 6.046875 -11 C 6.046875 -10.800781 6.039062 -10.628906 6.03125 -10.484375 C 6.019531 -10.285156 5.929688 -10.171875 5.765625 -10.140625 C 5.597656 -10.117188 5.390625 -10.109375 5.140625 -10.109375 L 3.4375 -10.109375 C 3.144531 -10.097656 2.953125 -10.039062 2.859375 -9.9375 C 2.765625 -9.832031 2.703125 -9.648438 2.671875 -9.390625 C 2.660156 -9.109375 2.65625 -8.820312 2.65625 -8.53125 C 2.664062 -8.25 2.679688 -7.96875 2.703125 -7.6875 C 2.703125 -7.488281 2.75 -7.320312 2.84375 -7.1875 C 2.945312 -7.101562 3.09375 -7.050781 3.28125 -7.03125 C 3.476562 -7.019531 3.707031 -7.015625 3.96875 -7.015625 C 4.101562 -7.015625 4.222656 -7.015625 4.328125 -7.015625 C 4.429688 -7.015625 4.507812 -7.007812 4.5625 -7 C 4.769531 -7 4.90625 -6.960938 4.96875 -6.890625 C 5.039062 -6.816406 5.082031 -6.675781 5.09375 -6.46875 C 5.113281 -6.289062 5.125 -6.113281 5.125 -5.9375 C 5.125 -5.757812 5.109375 -5.578125 5.078125 -5.390625 C 5.078125 -5.160156 4.953125 -5.035156 4.703125 -5.015625 C 4.578125 -5.003906 4.414062 -5 4.21875 -5 C 4.03125 -5 3.804688 -5 3.546875 -5 C 3.234375 -5 3.019531 -4.953125 2.90625 -4.859375 C 2.789062 -4.765625 2.722656 -4.535156 2.703125 -4.171875 C 2.679688 -3.960938 2.664062 -3.738281 2.65625 -3.5 C 2.65625 -3.269531 2.660156 -3.023438 2.671875 -2.765625 C 2.703125 -2.492188 2.765625 -2.304688 2.859375 -2.203125 C 2.953125 -2.097656 3.144531 -2.039062 3.4375 -2.03125 L 5.125 -2.03125 C 5.382812 -2.019531 5.59375 -2.003906 5.75 -1.984375 C 5.914062 -1.960938 6.007812 -1.859375 6.03125 -1.671875 Z M 6.03125 -1.671875 "/></g></g><g style="fill:#663a1f;fill-opacity:1;"><g transform="translate(130.282782, 124.521383)"><path style="stroke:none" d="M 6.734375 -0.9375 C 6.765625 -0.820312 6.785156 -0.71875 6.796875 -0.625 C 6.816406 -0.53125 6.835938 -0.441406 6.859375 -0.359375 C 6.878906 -0.273438 6.863281 -0.195312 6.8125 -0.125 C 6.757812 -0.0625 6.6875 -0.0234375 6.59375 -0.015625 C 6.363281 0.00390625 6.117188 0.015625 5.859375 0.015625 C 5.609375 0.015625 5.335938 0.0078125 5.046875 0 C 4.867188 -0.0195312 4.75 -0.117188 4.6875 -0.296875 C 4.632812 -0.472656 4.578125 -0.679688 4.515625 -0.921875 C 4.492188 -1.046875 4.453125 -1.222656 4.390625 -1.453125 C 4.335938 -1.691406 4.265625 -1.976562 4.171875 -2.3125 L 3.84375 -3.703125 C 3.8125 -3.867188 3.757812 -4.035156 3.6875 -4.203125 C 3.613281 -4.378906 3.445312 -4.445312 3.1875 -4.40625 C 2.9375 -4.375 2.796875 -4.253906 2.765625 -4.046875 C 2.742188 -3.847656 2.726562 -3.613281 2.71875 -3.34375 L 2.71875 -0.921875 C 2.71875 -0.671875 2.707031 -0.457031 2.6875 -0.28125 C 2.664062 -0.101562 2.535156 -0.0078125 2.296875 0 C 1.898438 0.0195312 1.492188 0.0195312 1.078125 0 C 0.847656 -0.0078125 0.722656 -0.101562 0.703125 -0.28125 C 0.691406 -0.46875 0.6875 -0.707031 0.6875 -1 L 0.6875 -11.140625 C 0.6875 -11.578125 0.726562 -11.835938 0.8125 -11.921875 C 0.882812 -11.992188 1.050781 -12.03125 1.3125 -12.03125 C 1.582031 -12.03125 1.960938 -12.03125 2.453125 -12.03125 L 3.359375 -12.03125 C 3.796875 -12.0625 4.289062 -11.992188 4.84375 -11.828125 C 5.3125 -11.710938 5.695312 -11.472656 6 -11.109375 C 6.3125 -10.742188 6.472656 -10.320312 6.484375 -9.84375 C 6.503906 -9.382812 6.503906 -8.363281 6.484375 -6.78125 C 6.484375 -6.394531 6.320312 -5.988281 6 -5.5625 C 5.769531 -5.28125 5.703125 -4.921875 5.796875 -4.484375 C 5.878906 -4.203125 6 -3.769531 6.15625 -3.1875 C 6.3125 -2.601562 6.503906 -1.851562 6.734375 -0.9375 Z M 4.578125 -9 C 4.566406 -9.269531 4.5 -9.472656 4.375 -9.609375 C 4.25 -9.753906 4.046875 -9.859375 3.765625 -9.921875 C 3.703125 -9.929688 3.648438 -9.9375 3.609375 -9.9375 C 3.566406 -9.945312 3.53125 -9.960938 3.5 -9.984375 C 3.175781 -10.023438 2.960938 -9.992188 2.859375 -9.890625 C 2.765625 -9.785156 2.71875 -9.597656 2.71875 -9.328125 C 2.726562 -9.054688 2.734375 -8.679688 2.734375 -8.203125 C 2.734375 -7.828125 2.734375 -7.523438 2.734375 -7.296875 C 2.742188 -7.078125 2.75 -6.957031 2.75 -6.9375 C 2.75 -6.65625 2.890625 -6.472656 3.171875 -6.390625 C 3.492188 -6.304688 3.785156 -6.347656 4.046875 -6.515625 C 4.316406 -6.679688 4.484375 -6.925781 4.546875 -7.25 C 4.554688 -7.300781 4.5625 -7.34375 4.5625 -7.375 C 4.570312 -7.414062 4.578125 -7.441406 4.578125 -7.453125 Z M 4.578125 -9 "/></g></g></g></svg>