<svg xmlns="http://www.w3.org/2000/svg" xmlns:xlink="http://www.w3.org/1999/xlink" width="250" zoomAndPan="magnify" viewBox="0 0 187.5 149.999998" height="200" preserveAspectRatio="xMidYMid meet" version="1.2"><defs><clipPath id="6feb08041e"><path d="M 4 28 L 58 28 L 58 63 L 4 63 Z M 4 28 "/></clipPath><clipPath id="a077bf787e"><path d="M 63.480469 34.886719 L 50.976562 71.71875 L 4.226562 55.84375 L 16.734375 19.015625 Z M 63.480469 34.886719 "/></clipPath><clipPath id="f9f4b07b0a"><path d="M 63.480469 34.886719 L 50.976562 71.71875 L 4.226562 55.84375 L 16.734375 19.015625 Z M 63.480469 34.886719 "/></clipPath><clipPath id="782e59cd3f"><path d="M 24 31 L 56 31 L 56 61 L 24 61 Z M 24 31 "/></clipPath><clipPath id="7ce20bcd57"><path d="M 63.480469 34.886719 L 50.976562 71.71875 L 4.226562 55.84375 L 16.734375 19.015625 Z M 63.480469 34.886719 "/></clipPath><clipPath id="38a33e5cec"><path d="M 63.480469 34.886719 L 50.976562 71.71875 L 4.226562 55.84375 L 16.734375 19.015625 Z M 63.480469 34.886719 "/></clipPath></defs><g id="6414ef3412"><g style="fill:#663a1f;fill-opacity:1;"><g transform="translate(13.324145, 107.334218)"><path style="stroke:none" d="M 51.515625 -73.875 C 51.597656 -73.601562 51.640625 -70.273438 51.640625 -63.890625 L 51.640625 -54.96875 C 51.460938 -50.53125 50.066406 -46.554688 47.453125 -43.046875 C 44.835938 -39.546875 41.441406 -37 37.265625 -35.40625 C 36.023438 -34.957031 34.164062 -34.644531 31.6875 -34.46875 C 30.175781 -34.46875 28.929688 -34.445312 27.953125 -34.40625 C 26.972656 -34.363281 26.304688 -34.296875 25.953125 -34.203125 C 23.734375 -33.941406 22.535156 -33.078125 22.359375 -31.609375 C 22.179688 -30.148438 22.09375 -28.351562 22.09375 -26.21875 L 22.09375 -5.328125 C 22.09375 -2.929688 21.785156 -1.421875 21.171875 -0.796875 C 20.804688 -0.441406 19.9375 -0.175781 18.5625 0 C 17.1875 0.175781 15.65625 0.242188 13.96875 0.203125 C 12.289062 0.160156 10.738281 0.09375 9.3125 0 C 7.71875 -0.175781 6.832031 -0.882812 6.65625 -2.125 C 6.476562 -3.375 6.390625 -4.796875 6.390625 -6.390625 L 6.390625 -86.78125 C 6.390625 -89 6.5 -90.550781 6.71875 -91.4375 C 6.945312 -92.332031 7.523438 -92.890625 8.453125 -93.109375 C 9.378906 -93.328125 10.953125 -93.4375 13.171875 -93.4375 L 28.484375 -93.4375 C 30.523438 -93.4375 32.785156 -93.171875 35.265625 -92.640625 C 37.753906 -92.109375 40.175781 -91.132812 42.53125 -89.71875 C 44.882812 -88.300781 46.878906 -86.300781 48.515625 -83.71875 C 50.160156 -81.144531 51.160156 -77.863281 51.515625 -73.875 Z M 36.609375 -57.375 C 37.046875 -60.382812 37.175781 -63.375 37 -66.34375 C 36.820312 -69.320312 36.046875 -71.851562 34.671875 -73.9375 C 33.296875 -76.019531 30.96875 -77.195312 27.6875 -77.46875 C 25.375 -77.644531 23.84375 -77.351562 23.09375 -76.59375 C 22.34375 -75.84375 21.988281 -74.46875 22.03125 -72.46875 C 22.070312 -70.476562 22.09375 -67.617188 22.09375 -63.890625 L 22.234375 -63.890625 L 22.234375 -53.375 C 22.410156 -51.15625 23.648438 -49.867188 25.953125 -49.515625 C 28.523438 -49.160156 30.851562 -49.710938 32.9375 -51.171875 C 35.03125 -52.640625 36.253906 -54.707031 36.609375 -57.375 Z M 36.609375 -57.375 "/></g></g><g style="fill:#663a1f;fill-opacity:1;"><g transform="translate(70.289009, 107.334218)"><path style="stroke:none" d="M 46.71875 -12.90625 C 46.894531 -11.21875 46.960938 -9.53125 46.921875 -7.84375 C 46.878906 -6.164062 46.769531 -4.523438 46.59375 -2.921875 C 46.5 -1.328125 45.785156 -0.441406 44.453125 -0.265625 C 43.128906 -0.0859375 41.753906 0 40.328125 0 L 11.453125 0 C 10.554688 0 9.597656 -0.0390625 8.578125 -0.125 C 7.566406 -0.21875 6.75 -0.53125 6.125 -1.0625 C 5.5 -1.59375 5.164062 -2.390625 5.125 -3.453125 C 5.082031 -4.523438 5.0625 -6.300781 5.0625 -8.78125 L 5.0625 -86.25 C 5.0625 -88.46875 5.171875 -90.066406 5.390625 -91.046875 C 5.609375 -92.023438 6.179688 -92.625 7.109375 -92.84375 C 8.046875 -93.0625 9.582031 -93.171875 11.71875 -93.171875 L 40.46875 -93.171875 C 43.300781 -93.171875 45.117188 -92.863281 45.921875 -92.25 C 46.367188 -91.894531 46.65625 -91.03125 46.78125 -89.65625 C 46.914062 -88.28125 46.960938 -86.8125 46.921875 -85.25 C 46.878906 -83.695312 46.8125 -82.390625 46.71875 -81.328125 C 46.632812 -79.734375 45.945312 -78.847656 44.65625 -78.671875 C 43.375 -78.492188 41.753906 -78.40625 39.796875 -78.40625 L 26.625 -78.40625 C 24.40625 -78.3125 22.914062 -77.863281 22.15625 -77.0625 C 21.40625 -76.269531 20.941406 -74.851562 20.765625 -72.8125 C 20.671875 -70.59375 20.644531 -68.375 20.6875 -66.15625 C 20.738281 -63.9375 20.804688 -61.765625 20.890625 -59.640625 C 20.890625 -58.035156 21.289062 -56.742188 22.09375 -55.765625 C 22.894531 -55.054688 24.023438 -54.65625 25.484375 -54.5625 C 26.953125 -54.476562 28.707031 -54.4375 30.75 -54.4375 C 31.8125 -54.4375 32.738281 -54.4375 33.53125 -54.4375 C 34.332031 -54.4375 34.957031 -54.394531 35.40625 -54.3125 C 37 -54.3125 38.0625 -54.019531 38.59375 -53.4375 C 39.132812 -52.863281 39.445312 -51.78125 39.53125 -50.1875 C 39.625 -48.757812 39.671875 -47.359375 39.671875 -45.984375 C 39.671875 -44.609375 39.582031 -43.210938 39.40625 -41.796875 C 39.40625 -40.023438 38.425781 -39.050781 36.46875 -38.875 C 35.488281 -38.78125 34.242188 -38.734375 32.734375 -38.734375 C 31.234375 -38.734375 29.503906 -38.734375 27.546875 -38.734375 C 25.066406 -38.734375 23.382812 -38.378906 22.5 -37.671875 C 21.613281 -36.960938 21.078125 -35.1875 20.890625 -32.34375 C 20.804688 -30.75 20.738281 -29.039062 20.6875 -27.21875 C 20.644531 -25.394531 20.671875 -23.46875 20.765625 -21.4375 C 20.941406 -19.300781 21.40625 -17.832031 22.15625 -17.03125 C 22.914062 -16.238281 24.40625 -15.796875 26.625 -15.703125 L 39.671875 -15.703125 C 41.710938 -15.617188 43.351562 -15.507812 44.59375 -15.375 C 45.832031 -15.238281 46.539062 -14.414062 46.71875 -12.90625 Z M 46.71875 -12.90625 "/></g></g><g style="fill:#663a1f;fill-opacity:1;"><g transform="translate(122.99483, 107.334218)"><path style="stroke:none" d="M 49.921875 -86.921875 C 49.921875 -85.585938 49.921875 -84.429688 49.921875 -83.453125 C 49.921875 -82.484375 49.875 -81.734375 49.78125 -81.203125 C 49.78125 -80.128906 49.5625 -79.285156 49.125 -78.671875 C 48.582031 -78.222656 47.867188 -77.953125 46.984375 -77.859375 C 46.097656 -77.773438 45.035156 -77.734375 43.796875 -77.734375 C 42.460938 -77.734375 41.148438 -77.6875 39.859375 -77.59375 C 38.578125 -77.507812 37.535156 -77.066406 36.734375 -76.265625 C 35.941406 -75.554688 35.5 -74.535156 35.40625 -73.203125 C 35.320312 -71.878906 35.28125 -69.929688 35.28125 -67.359375 L 35.28125 -8.125 C 35.28125 -5.726562 35.210938 -3.816406 35.078125 -2.390625 C 34.941406 -0.972656 34.078125 -0.175781 32.484375 0 C 29.015625 0.09375 25.6875 0.09375 22.5 0 C 20.8125 -0.09375 19.898438 -0.847656 19.765625 -2.265625 C 19.628906 -3.679688 19.5625 -5.367188 19.5625 -7.328125 L 19.5625 -68.6875 C 19.5625 -70.988281 19.515625 -72.671875 19.421875 -73.734375 C 19.335938 -74.804688 18.988281 -75.648438 18.375 -76.265625 C 17.75 -76.984375 16.8125 -77.40625 15.5625 -77.53125 C 14.320312 -77.664062 13.039062 -77.734375 11.71875 -77.734375 C 11.007812 -77.734375 10.382812 -77.734375 9.84375 -77.734375 C 9.3125 -77.734375 8.914062 -77.78125 8.65625 -77.875 C 7.320312 -77.957031 6.390625 -78.21875 5.859375 -78.65625 C 5.328125 -79.101562 5.015625 -79.992188 4.921875 -81.328125 C 4.742188 -84.171875 4.742188 -87.144531 4.921875 -90.25 C 4.921875 -91.226562 5.1875 -91.984375 5.71875 -92.515625 C 6.25 -92.953125 6.957031 -93.171875 7.84375 -93.171875 C 8.738281 -93.171875 9.941406 -93.171875 11.453125 -93.171875 L 43.390625 -93.171875 C 45.523438 -93.171875 47.035156 -93.082031 47.921875 -92.90625 C 48.804688 -92.726562 49.359375 -92.21875 49.578125 -91.375 C 49.804688 -90.53125 49.921875 -89.046875 49.921875 -86.921875 Z M 49.921875 -86.921875 "/></g></g><g clip-rule="nonzero" clip-path="url(#6feb08041e)"><g clip-rule="nonzero" clip-path="url(#a077bf787e)"><g clip-rule="nonzero" clip-path="url(#f9f4b07b0a)"><path style=" stroke:none;fill-rule:nonzero;fill:#fef9ea;fill-opacity:1;" d="M 29.800781 31.367188 C 30.894531 31.542969 32.15625 31.773438 33.265625 31.75 C 34.390625 31.71875 35.519531 30.339844 36.46875 29.757812 C 38.027344 28.8125 39.789062 28.140625 41.605469 28.109375 C 43.421875 28.074219 45.296875 28.710938 46.53125 30.050781 C 47.34375 30.914062 47.84375 32.019531 48.691406 32.832031 C 50.085938 34.183594 52.203125 34.570312 53.585938 35.929688 C 55.503906 37.808594 55.449219 40.859375 56.425781 43.355469 C 56.773438 44.246094 57.25 45.078125 57.570312 45.992188 C 58.492188 48.644531 57.71875 51.804688 55.667969 53.726562 C 54.789062 54.550781 53.71875 55.144531 52.875 56.023438 C 51.84375 57.085938 51.234375 58.488281 50.316406 59.648438 C 47.902344 62.714844 43.257812 63.765625 39.753906 62.039062 C 39.011719 61.675781 38.316406 61.203125 37.535156 60.917969 C 35.585938 60.222656 33.445312 60.847656 31.375 60.792969 C 27.792969 60.710938 24.582031 58.632812 21.097656 57.808594 C 18.449219 57.175781 15.691406 57.105469 12.976562 56.988281 C 7.5625 56.757812 4.789062 54.878906 4.636719 54.683594 L 10.9375 36.136719 C 11.265625 35.867188 11.628906 35.640625 12.046875 35.503906 C 13.511719 35.011719 15.277344 35.589844 16.777344 35.625 C 18.71875 35.675781 20.585938 36.125 22.292969 35.136719 C 23.605469 34.375 24.320312 33.84375 25.539062 32.929688 C 26.777344 32.042969 28.304688 31.128906 29.800781 31.367188 Z M 29.800781 31.367188 "/></g></g></g><g clip-rule="nonzero" clip-path="url(#782e59cd3f)"><g clip-rule="nonzero" clip-path="url(#7ce20bcd57)"><g clip-rule="nonzero" clip-path="url(#38a33e5cec)"><path style=" stroke:none;fill-rule:nonzero;fill:#ab8262;fill-opacity:1;" d="M 43.71875 51.171875 C 43 51.929688 42.117188 52.496094 41.234375 53.0625 C 38.847656 54.589844 36.457031 56.109375 34.074219 57.636719 C 33.351562 58.09375 32.601562 58.570312 31.753906 58.664062 C 30.5 58.808594 27.003906 58.269531 26.03125 55.394531 C 25.710938 54.457031 25.636719 53.464844 25.699219 52.464844 C 25.84375 50.359375 26.03125 48.238281 25.691406 46.164062 C 25.347656 44.050781 24.460938 42.046875 24.265625 39.917969 C 24.074219 37.792969 24.824219 35.335938 26.78125 34.484375 C 28.296875 33.824219 30.089844 34.332031 31.519531 35.167969 C 32.945312 36 34.160156 37.167969 35.609375 37.96875 C 37.425781 38.996094 39.515625 39.417969 41.449219 40.199219 C 46.089844 42.070312 47.425781 47.308594 43.71875 51.171875 Z M 54.804688 47.421875 C 54.085938 46.601562 53.089844 46.015625 52.003906 45.875 C 50.917969 45.730469 49.765625 46.0625 48.988281 46.828125 C 48.222656 47.601562 47.871094 48.8125 48.210938 49.84375 C 48.503906 50.714844 49.238281 51.40625 50.078125 51.753906 C 50.914062 52.113281 51.875 52.167969 52.785156 52.066406 C 53.421875 51.984375 54.074219 51.824219 54.59375 51.453125 C 55.96875 50.46875 55.832031 48.585938 54.804688 47.421875 Z M 47.339844 55 C 46.761719 54.605469 46.152344 54.246094 45.488281 54.070312 C 44.824219 53.898438 44.070312 53.929688 43.4375 54.3125 C 42.726562 54.734375 42.25 55.507812 41.914062 56.3125 C 41.691406 56.84375 41.511719 57.433594 41.523438 58.003906 C 41.539062 59.050781 42.21875 59.941406 43.066406 60.351562 C 44.3125 60.960938 46.84375 60.820312 48 59.667969 C 49.476562 58.179688 48.652344 55.867188 47.339844 55 Z M 53.632812 38.613281 C 53.496094 38.082031 53.15625 37.648438 52.792969 37.296875 C 51.910156 36.460938 50.769531 35.960938 49.574219 35.875 C 48.777344 35.820312 47.863281 35.996094 47.277344 36.691406 C 46.714844 37.347656 46.570312 38.347656 46.726562 39.195312 C 46.957031 40.429688 47.765625 41.414062 48.785156 41.84375 C 49.804688 42.273438 51.027344 42.160156 52.105469 41.628906 C 53.101562 41.125 53.945312 39.824219 53.632812 38.613281 Z M 43.511719 32.847656 C 43.167969 32.15625 42.410156 31.753906 41.671875 31.492188 C 40.839844 31.1875 39.933594 30.996094 39.054688 31.097656 C 38.175781 31.199219 37.292969 31.644531 36.820312 32.398438 C 36.296875 33.234375 36.324219 34.34375 36.804688 35.199219 C 37.289062 36.054688 38.179688 36.625 39.128906 36.855469 C 40.089844 37.066406 41.097656 36.945312 42.019531 36.597656 C 42.433594 36.441406 42.84375 36.238281 43.148438 35.917969 C 43.738281 35.273438 43.878906 33.613281 43.511719 32.847656 Z M 43.511719 32.847656 "/></g></g></g><g style="fill:#663a1f;fill-opacity:1;"><g transform="translate(33.951095, 135.52706)"><path style="stroke:none" d="M 7.609375 -16.375 C 7.972656 -16.375 8.234375 -16.359375 8.390625 -16.328125 C 8.546875 -16.296875 8.644531 -16.203125 8.6875 -16.046875 C 8.726562 -15.898438 8.75 -15.644531 8.75 -15.28125 C 8.75 -15.039062 8.75 -14.832031 8.75 -14.65625 C 8.75 -14.488281 8.738281 -14.359375 8.71875 -14.265625 C 8.71875 -14.078125 8.679688 -13.929688 8.609375 -13.828125 C 8.515625 -13.742188 8.390625 -13.691406 8.234375 -13.671875 C 8.078125 -13.660156 7.890625 -13.65625 7.671875 -13.65625 C 7.441406 -13.65625 7.210938 -13.644531 6.984375 -13.625 C 6.753906 -13.613281 6.570312 -13.539062 6.4375 -13.40625 C 6.289062 -13.28125 6.207031 -13.097656 6.1875 -12.859375 C 6.175781 -12.628906 6.171875 -12.285156 6.171875 -11.828125 L 6.171875 -9.078125 L 7.203125 -8.484375 C 7.328125 -8.390625 7.390625 -8.28125 7.390625 -8.15625 C 7.390625 -8 7.328125 -7.882812 7.203125 -7.8125 L 6.171875 -7.234375 L 6.171875 -1.421875 C 6.171875 -1.003906 6.160156 -0.671875 6.140625 -0.421875 C 6.117188 -0.171875 5.96875 -0.03125 5.6875 0 C 5.070312 0.0078125 4.484375 0.0078125 3.921875 0 C 3.628906 -0.0078125 3.472656 -0.140625 3.453125 -0.390625 C 3.429688 -0.640625 3.421875 -0.9375 3.421875 -1.28125 L 3.421875 -7.203125 L 2.34375 -7.8125 C 2.226562 -7.875 2.171875 -7.988281 2.171875 -8.15625 C 2.171875 -8.28125 2.226562 -8.390625 2.34375 -8.484375 L 3.421875 -9.09375 L 3.421875 -12.0625 C 3.421875 -12.46875 3.410156 -12.765625 3.390625 -12.953125 C 3.378906 -13.140625 3.316406 -13.289062 3.203125 -13.40625 C 3.097656 -13.53125 2.9375 -13.601562 2.71875 -13.625 C 2.5 -13.644531 2.269531 -13.65625 2.03125 -13.65625 C 1.90625 -13.65625 1.796875 -13.65625 1.703125 -13.65625 C 1.609375 -13.65625 1.539062 -13.664062 1.5 -13.6875 C 1.257812 -13.695312 1.09375 -13.738281 1 -13.8125 C 0.90625 -13.894531 0.851562 -14.054688 0.84375 -14.296875 C 0.8125 -14.796875 0.8125 -15.316406 0.84375 -15.859375 C 0.84375 -16.023438 0.890625 -16.15625 0.984375 -16.25 C 1.078125 -16.332031 1.203125 -16.375 1.359375 -16.375 C 1.515625 -16.375 1.722656 -16.375 1.984375 -16.375 Z M 7.609375 -16.375 "/></g></g><g style="fill:#663a1f;fill-opacity:1;"><g transform="translate(51.696896, 135.52706)"><path style="stroke:none" d="M 9.171875 -1.28125 C 9.210938 -1.125 9.242188 -0.976562 9.265625 -0.84375 C 9.296875 -0.71875 9.316406 -0.597656 9.328125 -0.484375 C 9.359375 -0.378906 9.335938 -0.28125 9.265625 -0.1875 C 9.203125 -0.09375 9.109375 -0.0351562 8.984375 -0.015625 C 8.671875 0.00390625 8.335938 0.015625 7.984375 0.015625 C 7.640625 0.015625 7.269531 0.0078125 6.875 0 C 6.625 -0.03125 6.457031 -0.164062 6.375 -0.40625 C 6.300781 -0.644531 6.226562 -0.929688 6.15625 -1.265625 C 6.125 -1.429688 6.066406 -1.675781 5.984375 -2 C 5.910156 -2.320312 5.8125 -2.707031 5.6875 -3.15625 L 5.234375 -5.046875 C 5.191406 -5.265625 5.117188 -5.488281 5.015625 -5.71875 C 4.910156 -5.957031 4.6875 -6.054688 4.34375 -6.015625 C 4.007812 -5.960938 3.820312 -5.796875 3.78125 -5.515625 C 3.738281 -5.234375 3.710938 -4.914062 3.703125 -4.5625 L 3.703125 -1.265625 C 3.703125 -0.921875 3.6875 -0.625 3.65625 -0.375 C 3.632812 -0.132812 3.460938 -0.0078125 3.140625 0 C 2.585938 0.03125 2.03125 0.03125 1.46875 0 C 1.15625 -0.0078125 0.988281 -0.140625 0.96875 -0.390625 C 0.945312 -0.640625 0.9375 -0.960938 0.9375 -1.359375 L 0.9375 -15.1875 C 0.9375 -15.769531 0.988281 -16.117188 1.09375 -16.234375 C 1.207031 -16.335938 1.441406 -16.390625 1.796875 -16.390625 C 2.160156 -16.390625 2.675781 -16.390625 3.34375 -16.390625 L 4.578125 -16.390625 C 5.171875 -16.421875 5.84375 -16.328125 6.59375 -16.109375 C 7.238281 -15.953125 7.769531 -15.625 8.1875 -15.125 C 8.601562 -14.632812 8.820312 -14.0625 8.84375 -13.40625 C 8.851562 -12.78125 8.851562 -11.390625 8.84375 -9.234375 C 8.84375 -8.703125 8.613281 -8.148438 8.15625 -7.578125 C 7.851562 -7.191406 7.769531 -6.703125 7.90625 -6.109375 C 8.007812 -5.734375 8.164062 -5.144531 8.375 -4.34375 C 8.59375 -3.550781 8.859375 -2.53125 9.171875 -1.28125 Z M 6.25 -12.25 C 6.226562 -12.625 6.128906 -12.90625 5.953125 -13.09375 C 5.785156 -13.28125 5.507812 -13.421875 5.125 -13.515625 C 5.039062 -13.535156 4.972656 -13.546875 4.921875 -13.546875 C 4.867188 -13.554688 4.816406 -13.570312 4.765625 -13.59375 C 4.328125 -13.65625 4.039062 -13.613281 3.90625 -13.46875 C 3.769531 -13.332031 3.703125 -13.078125 3.703125 -12.703125 C 3.710938 -12.335938 3.71875 -11.832031 3.71875 -11.1875 C 3.71875 -10.664062 3.722656 -10.253906 3.734375 -9.953125 C 3.742188 -9.648438 3.75 -9.484375 3.75 -9.453125 C 3.75 -9.054688 3.941406 -8.804688 4.328125 -8.703125 C 4.765625 -8.585938 5.160156 -8.644531 5.515625 -8.875 C 5.878906 -9.101562 6.109375 -9.4375 6.203125 -9.875 C 6.210938 -9.945312 6.222656 -10.003906 6.234375 -10.046875 C 6.242188 -10.097656 6.25 -10.132812 6.25 -10.15625 Z M 6.25 -12.25 "/></g></g><g style="fill:#663a1f;fill-opacity:1;"><g transform="translate(69.653076, 135.52706)"><path style="stroke:none" d="M 9.84375 -1.40625 C 9.96875 -0.71875 9.9375 -0.296875 9.75 -0.140625 C 9.6875 -0.078125 9.5 -0.0351562 9.1875 -0.015625 C 8.875 0.00390625 8.5625 0.0078125 8.25 0 C 7.9375 0 7.753906 0 7.703125 0 C 7.484375 -0.0078125 7.328125 -0.0625 7.234375 -0.15625 C 7.117188 -0.25 7.046875 -0.394531 7.015625 -0.59375 C 6.984375 -0.789062 6.945312 -1.078125 6.90625 -1.453125 C 6.882812 -1.617188 6.863281 -1.769531 6.84375 -1.90625 C 6.832031 -2.050781 6.8125 -2.171875 6.78125 -2.265625 C 6.78125 -2.347656 6.757812 -2.5 6.71875 -2.71875 C 6.6875 -2.9375 6.609375 -3.144531 6.484375 -3.34375 C 6.367188 -3.550781 6.171875 -3.65625 5.890625 -3.65625 C 5.828125 -3.664062 5.78125 -3.671875 5.75 -3.671875 C 5.71875 -3.671875 5.703125 -3.671875 5.703125 -3.671875 C 5.296875 -3.671875 4.988281 -3.648438 4.78125 -3.609375 C 4.582031 -3.578125 4.441406 -3.472656 4.359375 -3.296875 C 4.273438 -3.128906 4.207031 -2.84375 4.15625 -2.4375 C 4.144531 -2.34375 4.109375 -2.140625 4.046875 -1.828125 C 3.992188 -1.515625 3.925781 -1.082031 3.84375 -0.53125 C 3.78125 -0.1875 3.582031 -0.015625 3.25 -0.015625 C 2.53125 -0.00390625 1.921875 -0.00390625 1.421875 -0.015625 C 1.097656 -0.0351562 0.9375 -0.15625 0.9375 -0.375 C 0.945312 -0.59375 0.976562 -0.875 1.03125 -1.21875 C 1.125 -1.75 1.242188 -2.429688 1.390625 -3.265625 C 1.535156 -4.109375 1.691406 -5.03125 1.859375 -6.03125 C 2.035156 -7.03125 2.207031 -8.035156 2.375 -9.046875 C 2.550781 -10.066406 2.710938 -11.019531 2.859375 -11.90625 C 3.015625 -12.789062 3.144531 -13.550781 3.25 -14.1875 C 3.363281 -14.820312 3.4375 -15.25 3.46875 -15.46875 C 3.539062 -15.851562 3.640625 -16.097656 3.765625 -16.203125 C 3.898438 -16.316406 4.15625 -16.375 4.53125 -16.375 L 6.671875 -16.375 C 6.921875 -16.34375 7.09375 -16.296875 7.1875 -16.234375 C 7.257812 -16.148438 7.320312 -16.015625 7.375 -15.828125 C 7.4375 -15.648438 7.484375 -15.46875 7.515625 -15.28125 C 7.617188 -14.632812 7.75 -13.851562 7.90625 -12.9375 C 8.0625 -12.019531 8.222656 -11.039062 8.390625 -10 C 8.566406 -8.957031 8.738281 -7.9375 8.90625 -6.9375 C 9.082031 -5.945312 9.238281 -5.035156 9.375 -4.203125 C 9.519531 -3.378906 9.632812 -2.710938 9.71875 -2.203125 C 9.800781 -1.703125 9.84375 -1.4375 9.84375 -1.40625 Z M 6.171875 -6.546875 C 6.171875 -6.578125 6.171875 -6.625 6.171875 -6.6875 C 6.171875 -6.75 6.164062 -6.835938 6.15625 -6.953125 C 6.132812 -7.085938 6.097656 -7.285156 6.046875 -7.546875 C 6.003906 -7.816406 5.957031 -8.066406 5.90625 -8.296875 C 5.863281 -8.535156 5.84375 -8.660156 5.84375 -8.671875 C 5.832031 -8.765625 5.785156 -8.882812 5.703125 -9.03125 C 5.640625 -9.15625 5.550781 -9.203125 5.4375 -9.171875 C 5.332031 -9.148438 5.257812 -9.101562 5.21875 -9.03125 C 5.132812 -8.8125 5.054688 -8.519531 4.984375 -8.15625 C 4.921875 -7.800781 4.875 -7.375 4.84375 -6.875 C 4.820312 -6.8125 4.8125 -6.753906 4.8125 -6.703125 C 4.8125 -6.648438 4.8125 -6.609375 4.8125 -6.578125 C 4.8125 -6.460938 4.921875 -6.382812 5.140625 -6.34375 C 5.359375 -6.3125 5.582031 -6.3125 5.8125 -6.34375 C 6.039062 -6.382812 6.160156 -6.453125 6.171875 -6.546875 Z M 6.171875 -6.546875 "/></g></g><g style="fill:#663a1f;fill-opacity:1;"><g transform="translate(88.707885, 135.52706)"><path style="stroke:none" d="M 9.046875 -5.609375 C 9.078125 -4.953125 9.085938 -4.40625 9.078125 -3.96875 C 9.078125 -3.539062 9.050781 -3.207031 9 -2.96875 C 8.84375 -2.15625 8.488281 -1.472656 7.9375 -0.921875 C 7.382812 -0.378906 6.738281 -0.0234375 6 0.140625 C 5.257812 0.304688 4.503906 0.253906 3.734375 -0.015625 C 2.960938 -0.296875 2.269531 -0.84375 1.65625 -1.65625 C 1.488281 -1.875 1.363281 -2.132812 1.28125 -2.4375 C 1.207031 -2.75 1.171875 -3.097656 1.171875 -3.484375 L 1.140625 -12.75 C 1.128906 -13.46875 1.34375 -14.164062 1.78125 -14.84375 C 2.226562 -15.519531 2.835938 -16 3.609375 -16.28125 C 3.878906 -16.382812 4.140625 -16.4375 4.390625 -16.4375 C 4.734375 -16.457031 5.023438 -16.460938 5.265625 -16.453125 C 5.515625 -16.441406 5.71875 -16.4375 5.875 -16.4375 C 5.976562 -16.425781 6.082031 -16.410156 6.1875 -16.390625 C 6.300781 -16.378906 6.40625 -16.359375 6.5 -16.328125 C 6.78125 -16.210938 7.085938 -16.019531 7.421875 -15.75 C 7.753906 -15.476562 8.117188 -15.117188 8.515625 -14.671875 C 8.742188 -14.390625 8.894531 -14.03125 8.96875 -13.59375 C 9.050781 -13.15625 9.09375 -12.722656 9.09375 -12.296875 C 9.09375 -11.867188 9.085938 -11.535156 9.078125 -11.296875 C 9.054688 -11.015625 8.992188 -10.828125 8.890625 -10.734375 C 8.796875 -10.640625 8.609375 -10.59375 8.328125 -10.59375 C 7.847656 -10.582031 7.363281 -10.582031 6.875 -10.59375 C 6.65625 -10.613281 6.507812 -10.65625 6.4375 -10.71875 C 6.375 -10.78125 6.34375 -10.921875 6.34375 -11.140625 C 6.34375 -11.367188 6.332031 -11.722656 6.3125 -12.203125 C 6.300781 -12.660156 6.164062 -13.023438 5.90625 -13.296875 C 5.644531 -13.566406 5.351562 -13.703125 5.03125 -13.703125 C 4.695312 -13.703125 4.414062 -13.570312 4.1875 -13.3125 C 3.957031 -13.0625 3.828125 -12.796875 3.796875 -12.515625 C 3.773438 -12.242188 3.765625 -11.960938 3.765625 -11.671875 C 3.753906 -8.972656 3.753906 -6.710938 3.765625 -4.890625 C 3.765625 -4.734375 3.769531 -4.578125 3.78125 -4.421875 C 3.789062 -4.265625 3.800781 -4.113281 3.8125 -3.96875 C 3.84375 -3.675781 3.953125 -3.394531 4.140625 -3.125 C 4.328125 -2.863281 4.597656 -2.71875 4.953125 -2.6875 C 5.316406 -2.675781 5.628906 -2.8125 5.890625 -3.09375 C 6.160156 -3.382812 6.300781 -3.75 6.3125 -4.1875 L 6.3125 -5.46875 C 6.34375 -5.738281 6.394531 -5.921875 6.46875 -6.015625 C 6.550781 -6.109375 6.71875 -6.15625 6.96875 -6.15625 C 7.46875 -6.1875 7.988281 -6.1875 8.53125 -6.15625 C 8.875 -6.125 9.046875 -5.941406 9.046875 -5.609375 Z M 9.046875 -5.609375 "/></g></g><g style="fill:#663a1f;fill-opacity:1;"><g transform="translate(107.038061, 135.52706)"><path style="stroke:none" d="M 9.796875 -0.46875 C 9.859375 -0.25 9.773438 -0.109375 9.546875 -0.046875 C 9.359375 -0.0234375 9.203125 -0.0078125 9.078125 0 C 8.953125 0 8.707031 0 8.34375 0 L 7.703125 0 C 7.054688 0.0390625 6.617188 -0.253906 6.390625 -0.890625 C 6.359375 -0.992188 6.1875 -1.453125 5.875 -2.265625 C 5.59375 -2.984375 5.367188 -3.546875 5.203125 -3.953125 C 5.035156 -4.367188 4.929688 -4.632812 4.890625 -4.75 C 4.828125 -4.914062 4.757812 -5.0625 4.6875 -5.1875 C 4.613281 -5.3125 4.546875 -5.40625 4.484375 -5.46875 C 4.421875 -5.550781 4.335938 -5.59375 4.234375 -5.59375 C 4.140625 -5.59375 4.0625 -5.550781 4 -5.46875 C 3.8125 -5.238281 3.71875 -4.921875 3.71875 -4.515625 C 3.71875 -4.546875 3.71875 -4.363281 3.71875 -3.96875 C 3.71875 -3.582031 3.710938 -3 3.703125 -2.21875 L 3.703125 -0.65625 C 3.679688 -0.414062 3.625 -0.253906 3.53125 -0.171875 C 3.4375 -0.0859375 3.28125 -0.03125 3.0625 0 C 2.84375 0 2.613281 0 2.375 0 C 2.144531 0 1.921875 -0.00390625 1.703125 -0.015625 C 1.347656 -0.015625 1.160156 -0.210938 1.140625 -0.609375 C 1.128906 -0.679688 1.125 -0.785156 1.125 -0.921875 C 1.125 -1.066406 1.125 -1.242188 1.125 -1.453125 L 1.125 -15.0625 C 1.125 -15.414062 1.140625 -15.710938 1.171875 -15.953125 C 1.203125 -16.203125 1.359375 -16.332031 1.640625 -16.34375 C 2.148438 -16.363281 2.671875 -16.363281 3.203125 -16.34375 C 3.472656 -16.332031 3.625 -16.21875 3.65625 -16 C 3.6875 -15.78125 3.703125 -15.53125 3.703125 -15.25 L 3.703125 -14.3125 C 3.703125 -13.957031 3.703125 -13.65625 3.703125 -13.40625 C 3.710938 -13.164062 3.75 -12.921875 3.8125 -12.671875 C 3.84375 -12.566406 3.910156 -12.5 4.015625 -12.46875 C 4.128906 -12.445312 4.234375 -12.46875 4.328125 -12.53125 C 4.460938 -12.644531 4.609375 -12.875 4.765625 -13.21875 C 4.847656 -13.34375 4.9375 -13.5 5.03125 -13.6875 C 5.125 -13.875 5.222656 -14.082031 5.328125 -14.3125 C 5.472656 -14.582031 5.585938 -14.8125 5.671875 -15 C 5.753906 -15.1875 5.828125 -15.332031 5.890625 -15.4375 C 6.035156 -15.6875 6.15625 -15.894531 6.25 -16.0625 C 6.351562 -16.238281 6.507812 -16.332031 6.71875 -16.34375 C 7.582031 -16.425781 8.34375 -16.425781 9 -16.34375 C 9.082031 -16.332031 9.140625 -16.289062 9.171875 -16.21875 C 9.210938 -16.144531 9.21875 -16.070312 9.1875 -16 C 9.15625 -15.90625 9.113281 -15.800781 9.0625 -15.6875 C 9.007812 -15.582031 8.953125 -15.46875 8.890625 -15.34375 C 8.734375 -15.03125 8.460938 -14.492188 8.078125 -13.734375 C 7.703125 -12.984375 7.21875 -12.007812 6.625 -10.8125 C 6.507812 -10.59375 6.425781 -10.4375 6.375 -10.34375 C 6.320312 -10.25 6.300781 -10.21875 6.3125 -10.25 C 6.125 -9.882812 6.117188 -9.523438 6.296875 -9.171875 C 6.367188 -8.984375 6.457031 -8.769531 6.5625 -8.53125 C 6.675781 -8.300781 6.789062 -8.039062 6.90625 -7.75 C 7.320312 -6.695312 7.75 -5.617188 8.1875 -4.515625 C 8.632812 -3.410156 9.101562 -2.269531 9.59375 -1.09375 C 9.6875 -0.894531 9.753906 -0.6875 9.796875 -0.46875 Z M 9.796875 -0.46875 "/></g></g><g style="fill:#663a1f;fill-opacity:1;"><g transform="translate(125.835743, 135.52706)"><path style="stroke:none" d="M 8.203125 -2.265625 C 8.234375 -1.972656 8.242188 -1.675781 8.234375 -1.375 C 8.234375 -1.082031 8.21875 -0.796875 8.1875 -0.515625 C 8.164062 -0.234375 8.039062 -0.078125 7.8125 -0.046875 C 7.582031 -0.015625 7.34375 0 7.09375 0 L 2.015625 0 C 1.859375 0 1.6875 -0.00390625 1.5 -0.015625 C 1.320312 -0.0351562 1.179688 -0.09375 1.078125 -0.1875 C 0.960938 -0.28125 0.898438 -0.421875 0.890625 -0.609375 C 0.890625 -0.796875 0.890625 -1.109375 0.890625 -1.546875 L 0.890625 -15.15625 C 0.890625 -15.539062 0.90625 -15.816406 0.9375 -15.984375 C 0.976562 -16.160156 1.082031 -16.269531 1.25 -16.3125 C 1.414062 -16.351562 1.6875 -16.375 2.0625 -16.375 L 7.109375 -16.375 C 7.609375 -16.375 7.925781 -16.316406 8.0625 -16.203125 C 8.144531 -16.140625 8.195312 -15.988281 8.21875 -15.75 C 8.238281 -15.507812 8.242188 -15.253906 8.234375 -14.984375 C 8.234375 -14.710938 8.222656 -14.484375 8.203125 -14.296875 C 8.191406 -14.015625 8.070312 -13.859375 7.84375 -13.828125 C 7.625 -13.796875 7.34375 -13.78125 7 -13.78125 L 4.671875 -13.78125 C 4.285156 -13.757812 4.023438 -13.675781 3.890625 -13.53125 C 3.765625 -13.394531 3.6875 -13.148438 3.65625 -12.796875 C 3.632812 -12.398438 3.628906 -12.007812 3.640625 -11.625 C 3.648438 -11.238281 3.660156 -10.859375 3.671875 -10.484375 C 3.671875 -10.203125 3.742188 -9.972656 3.890625 -9.796875 C 4.023438 -9.671875 4.21875 -9.597656 4.46875 -9.578125 C 4.726562 -9.566406 5.039062 -9.5625 5.40625 -9.5625 C 5.59375 -9.5625 5.753906 -9.5625 5.890625 -9.5625 C 6.035156 -9.5625 6.144531 -9.554688 6.21875 -9.546875 C 6.5 -9.546875 6.6875 -9.492188 6.78125 -9.390625 C 6.875 -9.285156 6.929688 -9.09375 6.953125 -8.8125 C 6.960938 -8.5625 6.96875 -8.316406 6.96875 -8.078125 C 6.96875 -7.835938 6.953125 -7.59375 6.921875 -7.34375 C 6.921875 -7.03125 6.75 -6.859375 6.40625 -6.828125 C 6.238281 -6.816406 6.019531 -6.8125 5.75 -6.8125 C 5.488281 -6.8125 5.1875 -6.8125 4.84375 -6.8125 C 4.40625 -6.8125 4.109375 -6.75 3.953125 -6.625 C 3.796875 -6.5 3.703125 -6.1875 3.671875 -5.6875 C 3.660156 -5.40625 3.648438 -5.101562 3.640625 -4.78125 C 3.628906 -4.457031 3.632812 -4.117188 3.65625 -3.765625 C 3.6875 -3.390625 3.765625 -3.128906 3.890625 -2.984375 C 4.023438 -2.847656 4.285156 -2.773438 4.671875 -2.765625 L 6.96875 -2.765625 C 7.332031 -2.742188 7.617188 -2.722656 7.828125 -2.703125 C 8.046875 -2.679688 8.171875 -2.535156 8.203125 -2.265625 Z M 8.203125 -2.265625 "/></g></g><g style="fill:#663a1f;fill-opacity:1;"><g transform="translate(143.254288, 135.52706)"><path style="stroke:none" d="M 9.171875 -1.28125 C 9.210938 -1.125 9.242188 -0.976562 9.265625 -0.84375 C 9.296875 -0.71875 9.316406 -0.597656 9.328125 -0.484375 C 9.359375 -0.378906 9.335938 -0.28125 9.265625 -0.1875 C 9.203125 -0.09375 9.109375 -0.0351562 8.984375 -0.015625 C 8.671875 0.00390625 8.335938 0.015625 7.984375 0.015625 C 7.640625 0.015625 7.269531 0.0078125 6.875 0 C 6.625 -0.03125 6.457031 -0.164062 6.375 -0.40625 C 6.300781 -0.644531 6.226562 -0.929688 6.15625 -1.265625 C 6.125 -1.429688 6.066406 -1.675781 5.984375 -2 C 5.910156 -2.320312 5.8125 -2.707031 5.6875 -3.15625 L 5.234375 -5.046875 C 5.191406 -5.265625 5.117188 -5.488281 5.015625 -5.71875 C 4.910156 -5.957031 4.6875 -6.054688 4.34375 -6.015625 C 4.007812 -5.960938 3.820312 -5.796875 3.78125 -5.515625 C 3.738281 -5.234375 3.710938 -4.914062 3.703125 -4.5625 L 3.703125 -1.265625 C 3.703125 -0.921875 3.6875 -0.625 3.65625 -0.375 C 3.632812 -0.132812 3.460938 -0.0078125 3.140625 0 C 2.585938 0.03125 2.03125 0.03125 1.46875 0 C 1.15625 -0.0078125 0.988281 -0.140625 0.96875 -0.390625 C 0.945312 -0.640625 0.9375 -0.960938 0.9375 -1.359375 L 0.9375 -15.1875 C 0.9375 -15.769531 0.988281 -16.117188 1.09375 -16.234375 C 1.207031 -16.335938 1.441406 -16.390625 1.796875 -16.390625 C 2.160156 -16.390625 2.675781 -16.390625 3.34375 -16.390625 L 4.578125 -16.390625 C 5.171875 -16.421875 5.84375 -16.328125 6.59375 -16.109375 C 7.238281 -15.953125 7.769531 -15.625 8.1875 -15.125 C 8.601562 -14.632812 8.820312 -14.0625 8.84375 -13.40625 C 8.851562 -12.78125 8.851562 -11.390625 8.84375 -9.234375 C 8.84375 -8.703125 8.613281 -8.148438 8.15625 -7.578125 C 7.851562 -7.191406 7.769531 -6.703125 7.90625 -6.109375 C 8.007812 -5.734375 8.164062 -5.144531 8.375 -4.34375 C 8.59375 -3.550781 8.859375 -2.53125 9.171875 -1.28125 Z M 6.25 -12.25 C 6.226562 -12.625 6.128906 -12.90625 5.953125 -13.09375 C 5.785156 -13.28125 5.507812 -13.421875 5.125 -13.515625 C 5.039062 -13.535156 4.972656 -13.546875 4.921875 -13.546875 C 4.867188 -13.554688 4.816406 -13.570312 4.765625 -13.59375 C 4.328125 -13.65625 4.039062 -13.613281 3.90625 -13.46875 C 3.769531 -13.332031 3.703125 -13.078125 3.703125 -12.703125 C 3.710938 -12.335938 3.71875 -11.832031 3.71875 -11.1875 C 3.71875 -10.664062 3.722656 -10.253906 3.734375 -9.953125 C 3.742188 -9.648438 3.75 -9.484375 3.75 -9.453125 C 3.75 -9.054688 3.941406 -8.804688 4.328125 -8.703125 C 4.765625 -8.585938 5.160156 -8.644531 5.515625 -8.875 C 5.878906 -9.101562 6.109375 -9.4375 6.203125 -9.875 C 6.210938 -9.945312 6.222656 -10.003906 6.234375 -10.046875 C 6.242188 -10.097656 6.25 -10.132812 6.25 -10.15625 Z M 6.25 -12.25 "/></g></g></g></svg>